<mxfile host="app.diagrams.net" modified="2022-07-20T08:09:20.336Z" agent="5.0 (X11)" etag="G3_5Y_zlhYGnPVCanoGG" version="20.1.2" type="github">
  <diagram id="zrMWa_FLOu9Q8kttmFzF" name="Page-1">
    <mxGraphModel dx="1102" dy="551" grid="1" gridSize="10" guides="1" tooltips="1" connect="1" arrows="1" fold="1" page="1" pageScale="1" pageWidth="850" pageHeight="1100" math="0" shadow="0">
      <root>
        <mxCell id="0" />
        <mxCell id="1" parent="0" />
        <mxCell id="sf5IwjjIK1uFrz8gkjvL-12" style="edgeStyle=orthogonalEdgeStyle;rounded=0;orthogonalLoop=1;jettySize=auto;html=1;exitX=0.5;exitY=0;exitDx=0;exitDy=0;entryX=0.5;entryY=1;entryDx=0;entryDy=0;" edge="1" parent="1" source="sf5IwjjIK1uFrz8gkjvL-5" target="sf5IwjjIK1uFrz8gkjvL-7">
          <mxGeometry relative="1" as="geometry" />
        </mxCell>
        <mxCell id="sf5IwjjIK1uFrz8gkjvL-8" style="edgeStyle=orthogonalEdgeStyle;rounded=0;orthogonalLoop=1;jettySize=auto;html=1;exitX=0.5;exitY=1;exitDx=0;exitDy=0;entryX=0.5;entryY=0;entryDx=0;entryDy=0;" edge="1" parent="1" source="sf5IwjjIK1uFrz8gkjvL-6" target="sf5IwjjIK1uFrz8gkjvL-7">
          <mxGeometry relative="1" as="geometry">
            <Array as="points">
              <mxPoint x="448" y="240" />
            </Array>
          </mxGeometry>
        </mxCell>
        <mxCell id="sf5IwjjIK1uFrz8gkjvL-5" value="&lt;div&gt;File_extension-to-typing-methods map&lt;/div&gt;&lt;div&gt;(extension, method, tool)&lt;br&gt;&lt;/div&gt;" style="rounded=1;whiteSpace=wrap;html=1;fillColor=#f8cecc;strokeColor=#b85450;" vertex="1" parent="1">
          <mxGeometry x="346.25" y="370" width="213.75" height="40" as="geometry" />
        </mxCell>
        <mxCell id="sf5IwjjIK1uFrz8gkjvL-6" value="&lt;div&gt;Typing reports&lt;/div&gt;&lt;div&gt;(sample_id, type)&lt;/div&gt;&lt;div&gt;(tool-dependent format)&lt;/div&gt;" style="rounded=1;whiteSpace=wrap;html=1;fillColor=#dae8fc;strokeColor=#6c8ebf;" vertex="1" parent="1">
          <mxGeometry x="340" y="200" width="215" height="50" as="geometry" />
        </mxCell>
        <mxCell id="sf5IwjjIK1uFrz8gkjvL-18" style="edgeStyle=orthogonalEdgeStyle;rounded=0;orthogonalLoop=1;jettySize=auto;html=1;exitX=0;exitY=0.5;exitDx=0;exitDy=0;entryX=1;entryY=0.5;entryDx=0;entryDy=0;" edge="1" parent="1" source="sf5IwjjIK1uFrz8gkjvL-7" target="sf5IwjjIK1uFrz8gkjvL-17">
          <mxGeometry relative="1" as="geometry" />
        </mxCell>
        <mxCell id="sf5IwjjIK1uFrz8gkjvL-7" value="&lt;div&gt;Standardized typing reports&lt;/div&gt;&lt;div&gt;(sample_id, type, tool, method)&lt;/div&gt;&lt;div&gt;(temp) &lt;br&gt;&lt;/div&gt;&lt;div&gt;(one report for all tools for one sample)&lt;/div&gt;" style="rounded=1;whiteSpace=wrap;html=1;fillColor=#dae8fc;strokeColor=#6c8ebf;" vertex="1" parent="1">
          <mxGeometry x="335" y="275" width="225" height="65" as="geometry" />
        </mxCell>
        <mxCell id="sf5IwjjIK1uFrz8gkjvL-17" value="Integrate standardized typing reports into ardetype report, using sample id as a join key." style="rounded=1;whiteSpace=wrap;html=1;fillColor=#d5e8d4;strokeColor=#82b366;" vertex="1" parent="1">
          <mxGeometry x="100" y="267.5" width="190" height="80" as="geometry" />
        </mxCell>
        <mxCell id="sf5IwjjIK1uFrz8gkjvL-20" value="bact_tip" style="rounded=0;whiteSpace=wrap;html=1;fillColor=#dae8fc;strokeColor=#6c8ebf;" vertex="1" parent="1">
          <mxGeometry x="220" y="190" width="70" height="20" as="geometry" />
        </mxCell>
        <mxCell id="sf5IwjjIK1uFrz8gkjvL-22" value="bact_shape" style="rounded=0;whiteSpace=wrap;html=1;fillColor=#d5e8d4;strokeColor=#82b366;" vertex="1" parent="1">
          <mxGeometry x="220" y="210" width="70" height="20" as="geometry" />
        </mxCell>
        <mxCell id="sf5IwjjIK1uFrz8gkjvL-24" value="data" style="rounded=0;whiteSpace=wrap;html=1;fillColor=#f8cecc;strokeColor=#b85450;" vertex="1" parent="1">
          <mxGeometry x="220" y="170" width="70" height="20" as="geometry" />
        </mxCell>
      </root>
    </mxGraphModel>
  </diagram>
</mxfile>
